<svg xmlns="http://www.w3.org/2000/svg" width="1200" height="320" fill="none" aria-labelledby="title desc" shape-rendering="geometricPrecision"><desc>Operon vector logo optimized for light backgrounds. The icon and wordmark are hand-drawn SVG geometry with no font dependency.</desc><defs><linearGradient id="a" x1="48" x2="336" y1="160" y2="160" gradientUnits="userSpaceOnUse"><stop offset="0%" stop-color="#32d84a"/><stop offset="52%" stop-color="#00b8a9"/><stop offset="100%" stop-color="#1877f2"/></linearGradient><linearGradient id="b" x1="708" x2="780" y1="160" y2="160" gradientUnits="userSpaceOnUse"><stop offset="0%" stop-color="#32d84a"/><stop offset="52%" stop-color="#00b8a9"/><stop offset="100%" stop-color="#1877f2"/></linearGradient></defs><path stroke="url(#a)" stroke-linecap="round" stroke-width="20" d="M93.01 61.01a140 140 0 0 1 197.98 0m0 197.98a140 140 0 0 1-197.98 0"/><path stroke="url(#a)" stroke-linecap="round" stroke-width="20" d="M48 160h288"/><circle cx="48" cy="160" r="24" fill="#fff" stroke="url(#a)" stroke-width="14"/><circle cx="96" cy="160" r="24" fill="#fff" stroke="url(#a)" stroke-width="14"/><circle cx="288" cy="160" r="24" fill="#fff" stroke="url(#a)" stroke-width="14"/><circle cx="336" cy="160" r="24" fill="#fff" stroke="url(#a)" stroke-width="14"/><circle cx="192" cy="160" r="42" fill="#fff" stroke="url(#a)" stroke-width="20"/><circle cx="192" cy="160" r="17" fill="url(#a)"/><g stroke="#111827" stroke-linecap="round" stroke-linejoin="round" stroke-width="14"><rect width="74" height="100" x="432" y="110" rx="24"/><path d="M560 210V110h62q24 0 24 30t-24 30h-62M708 110h72M708 210h72"/><path stroke="url(#b)" d="M708 160h72"/><path d="M842 210V110h62q24 0 24 30t-24 30h-62M893 170l41 40"/><rect width="74" height="100" x="988" y="110" rx="24"/><path d="M1116 210V110l74 100V110"/></g></svg>